<svg
    width="800"
    height="200"
    viewBox="0 0 800 200"
    xmlns="http://www.w3.org/2000/svg"
    xmlns:svg="http://www.w3.org/2000/svg"
>
    <style>
        circle,
        path {
            fill: none;
            stroke: black;
            stroke-width: 4;
            stroke-opacity: 1;
        }
    </style>

    <circle cx="101" cy="264" r="8" />
    <circle cx="111" cy="216" r="8" />
    <circle cx="112" cy="86" r="8" />
    <circle cx="12" cy="215" r="8" />
    <circle cx="138" cy="49" r="8" />
    <circle cx="140" cy="238" r="8" />
    <circle cx="16" cy="85" r="8" />
    <circle cx="17" cy="109" r="8" />
    <circle cx="176" cy="108" r="8" />
    <circle cx="176" cy="131" r="8" />
    <circle cx="176" cy="154" r="8" />
    <circle cx="177" cy="177" r="8" />
    <circle cx="201" cy="177" r="8" />
    <circle cx="202" cy="108" r="8" />
    <circle cx="202" cy="223" r="8" />
    <circle cx="224" cy="33" r="8" />
    <circle cx="227" cy="108" r="8" />
    <circle cx="227" cy="177" r="8" />
    <circle cx="239" cy="241" r="8" />
    <circle cx="252" cy="109" r="8" />
    <circle cx="253" cy="131" r="8" />
    <circle cx="253" cy="154" r="8" />
    <circle cx="253" cy="177" r="8" />
    <circle cx="253" cy="33" r="8" />
    <circle cx="253" cy="76" r="8" />
    <circle cx="260" cy="241" r="8" />
    <circle cx="281" cy="34" r="8" />
    <circle cx="298" cy="153" r="8" />
    <circle cx="299" cy="199" r="8" />
    <circle cx="300" cy="131" r="8" />
    <circle cx="300" cy="178" r="8" />
    <circle cx="300" cy="291" r="8" />
    <circle cx="325" cy="135" r="8" />
    <circle cx="341" cy="69" r="8" />
    <circle cx="357" cy="90" r="8" />
    <circle cx="358" cy="113" r="8" />
    <circle cx="359" cy="231" r="8" />
    <circle cx="381" cy="96" r="8" />
    <circle cx="41" cy="264" r="8" />
    <circle cx="413" cy="285" r="8" />
    <circle cx="413" cy="74" r="8" />
    <circle cx="419" cy="205" r="8" />
    <circle cx="420" cy="227" r="8" />
    <circle cx="432" cy="302" r="8" />
    <circle cx="444" cy="205" r="8" />
    <circle cx="444" cy="264" r="8" />
    <circle cx="445" cy="228" r="8" />
    <circle cx="461" cy="52" r="8" />
    <circle cx="461" cy="74" r="8" />
    <circle cx="461" cy="98" r="8" />
    <circle cx="487" cy="52" r="8" />
    <circle cx="487" cy="8" r="8" />
    <circle cx="487" cy="97" r="8" />
    <circle cx="51" cy="216" r="8" />
    <circle cx="511" cy="97" r="8" />
    <circle cx="512" cy="51" r="8" />
    <circle cx="512" cy="74" r="8" />
    <circle cx="524" cy="269" r="8" />
    <circle cx="54" cy="109" r="8" />
    <circle cx="549" cy="138" r="8" />
    <circle cx="549" cy="248" r="8" />
    <circle cx="582" cy="129" r="8" />
    <circle cx="588" cy="10" r="8" />
    <circle cx="589" cy="223" r="8" />
    <circle cx="609" cy="223" r="8" />
    <circle cx="629" cy="112" r="8" />
    <circle cx="629" cy="66" r="8" />
    <circle cx="630" cy="88" r="8" />
    <circle cx="634" cy="9" r="8" />
    <circle cx="655" cy="111" r="8" />
    <circle cx="655" cy="66" r="8" />
    <circle cx="657" cy="241" r="8" />
    <circle cx="674" cy="21" r="8" />
    <circle cx="680" cy="112" r="8" />
    <circle cx="680" cy="65" r="8" />
    <circle cx="681" cy="89" r="8" />
    <circle cx="692" cy="216" r="8" />
    <circle cx="71" cy="142" r="8" />
    <circle cx="72" cy="215" r="8" />
    <circle cx="721" cy="112" r="8" />
    <circle cx="728" cy="143" r="8" />
    <circle cx="731" cy="216" r="8" />
    <circle cx="766" cy="35" r="8" />
    <circle cx="766" cy="9" r="8" />
    <circle cx="769" cy="111" r="8" />
    <circle cx="771" cy="217" r="8" />
    <circle cx="790" cy="215" r="8" />
    <circle cx="82" cy="87" r="8" />
    <circle cx="98" cy="154" r="8" />

    <path d="M -1,246 H 111 l 22,22 102,0 78,77" />
    <path d="M 104,79 33,8 -2,8" />
    <path d="M 167,108 80,107 26,54 -2,54" />
    <path d="M 167,175 H -3" />
    <path d="M 197,218 178,198 -2,199" />
    <path d="M 218,26 210,19 137,20 125,8 124,-2" />
    <path d="M 253,-2 V 24" />
    <path d="M 281,-2 279,22" />
    <path d="M 399,-3 398,9 348,61" />
    <path d="M 407,280 363,236" />
    <path d="M 412,-2 411,17 305,122" />
    <path d="M 44,107 24,107" />
    <path d="M 6,84 H -4" />
    <path d="M 61,141 H -2" />
    <path d="M 634,57 667,26" />
    <path d="M 723,-2 723,21 685,57" />
    <path d="M 74,79 29,33 -2,33" />
    <path d="M 758,110 H 729" />
    <path d="M 773,7 800,7" />
    <path d="M 801,128 589,128" />
    <path d="M 801,153 H 492 l -42,44" />
    <path d="M 801,54 H 711 L 685,81" />
    <path d="M 807,199 H 532 l -94,96" />
    <path d="M 88,153 H -2" />
    <path d="m -2,228 121,-0 6,-5 38,-0 19,19 34,-0 17,-18 28,-0 96,97 1,14" />
    <path d="m -2,235 115,1 22,20 104,0 83,83" />
    <path d="m -2,255 15,-0 26,26 196,-1 69,68" />
    <path d="m 102,-2 0,12 24,24 62,1 24,24 65,-0 48,-49 V -2" />
    <path d="m 145,48 h 39 l 27,27 32,-0" />
    <path d="m 166,153 -35,0 -26,-25 -107,-0" />
    <path d="m 306,174 80,0 60,-61 74,0 43,-42 V -3" />
    <path d="m 351,-3 0,13 -93,91" />
    <path d="m 386,-2 0,7 -108,106 0,102 107,107" />
    <path d="m 41,214 -22,0" />
    <path d="m 411,81 v 8 L 366,134 h -33" />
    <path d="m 420,-1 0,27 -56,56" />
    <path d="m 430,-2 -0,112 -42,41 h -80" />
    <path d="m 459,41 0,-44" />
    <path d="m 49,262 40,0" />
    <path d="m 511,-3 -0,6 -26,25 1,13" />
    <path d="m 518,90 35,-37 0,-54" />
    <path d="m 529,-2 -0,33 -11,13" />
    <path d="m 532,268 132,0 22,-22 114,0" />
    <path d="m 608,-2 0,12 -26,24 v 44 l -58,59 -74,0 -59,61 -83,-1" />
    <path d="m 627,14 -29,29 v 43 l -43,42" />
    <path d="m 685,104 20,-21 96,1" />
    <path d="m 721,213 -22,0" />
    <path d="m 75,-3 -0,16 53,53 48,0 24,24 1,6" />
    <path d="m 773,33 h 28" />
    <path d="m 79,214 23,0" />
    <path d="m 801,140 -66,1" />
    <path
        d="m 801,228 -121,-0 -7,-7 -38,0 -19,20 -33,-0 -18,-17 -28,-0 -96,97"
    />
    <path d="m 804,178 -275,-1 -79,80" />
    <path d="m 804,238 -119,-2 -20,20 -104,1 -4,-4" />
</svg>
